<svg width="1389" height="607" viewBox="0 0 1389 607" fill="none" xmlns="http://www.w3.org/2000/svg">
<g clip-path="url(#clip0)">
<path d="M1197.9 87.1616C1199.37 76.8431 1184.8 68.4901 1173.99 67.5074C1168.75 67.016 1163.34 67.835 1158.43 66.1971C1147.78 62.5939 1143.52 48.6722 1133.04 44.4138C1125.34 41.1381 1116.34 44.0862 1108.8 47.8532C1101.27 51.6203 1093.9 56.37 1085.38 57.0252C1078.01 57.3527 1070.15 54.7322 1063.76 58.1717C1059.01 60.7922 1056.55 66.3609 1052.13 69.6366C1047.87 72.7485 1042.14 73.4036 1036.9 73.7312C1031.5 74.0588 1025.93 74.0588 1021.01 76.3518C1016.1 78.6448 1012.17 83.7221 1013.15 88.9632L1197.9 87.1616Z" fill="#EFF6F8"/>
<path d="M1001.93 30.794C1002.96 23.599 992.795 17.7744 985.258 17.0891C981.603 16.7465 977.834 17.3175 974.408 16.1755C966.985 13.6629 964.015 3.95522 956.706 0.985816C951.338 -1.29834 945.057 0.7574 939.803 3.38418C934.55 6.01096 929.41 9.32299 923.471 9.77982C918.332 10.0082 912.85 8.18091 908.396 10.5793C905.084 12.4066 903.371 16.2897 900.287 18.5738C897.318 20.7438 893.32 21.2006 889.666 21.429C885.897 21.6574 882.014 21.6574 878.588 23.2563C875.161 24.8552 872.42 28.3957 873.106 32.0503L1001.93 30.794Z" fill="#ECF2F3"/>
<path d="M787.901 173.162C789.375 162.843 774.798 154.49 763.988 153.507C758.747 153.016 753.342 153.835 748.429 152.197C737.783 148.594 733.524 134.672 723.042 130.414C715.344 127.138 706.336 130.086 698.802 133.853C691.268 137.62 683.897 142.37 675.381 143.025C668.01 143.353 660.149 140.732 653.761 144.172C649.011 146.792 646.555 152.361 642.132 155.637C637.874 158.749 632.141 159.404 626.9 159.731C621.495 160.059 615.927 160.059 611.013 162.352C606.1 164.645 602.169 169.722 603.152 174.963L787.901 173.162Z" fill="#EFF6F8"/>
<path d="M207.901 113.162C209.375 102.843 194.798 94.4901 183.988 93.5074C178.747 93.016 173.342 93.835 168.429 92.1971C157.783 88.5939 153.524 74.6722 143.042 70.4138C135.344 67.1381 126.336 70.0862 118.802 73.8532C111.268 77.6203 103.897 82.37 95.3807 83.0252C88.0103 83.3527 80.1487 80.7322 73.7611 84.1717C69.0113 86.7922 66.5545 92.3609 62.1324 95.6366C57.874 98.7485 52.1415 99.4036 46.9004 99.7312C41.4955 100.059 35.9268 100.059 31.0133 102.352C26.0997 104.645 22.1689 109.722 23.1516 114.963L207.901 113.162Z" fill="#EFF6F8"/>
<path d="M388.932 43.794C389.96 36.599 379.795 30.7744 372.258 30.0891C368.603 29.7465 364.834 30.3175 361.408 29.1755C353.985 26.6629 351.015 16.9552 343.706 13.9858C338.338 11.7017 332.057 13.7574 326.803 16.3842C321.55 19.011 316.41 22.323 310.471 22.7798C305.332 23.0082 299.85 21.1809 295.396 23.5793C292.084 25.4066 290.371 29.2897 287.287 31.5738C284.318 33.7438 280.32 34.2006 276.666 34.429C272.897 34.6574 269.014 34.6574 265.588 36.2563C262.161 37.8552 259.42 41.3957 260.106 45.0503L388.932 43.794Z" fill="#ECF2F3"/>
<g clip-path="url(#clip1)">
<path d="M1389.43 578.851L1379.55 513.013H1359.29V458.279H1361.81V453.431H1352.07V432.163H1350.82V453.431H1344.07V435.916H1342.81V453.431H1302V458.279H1304.82V569.155H1258.04V519.582H1231.51V397.446H1234.02V391.503H1228.69V383.841H1222.56V381.026V372.268V364.605H1215.19V351H1214.24H1213.46V364.605H1209.38L1207.02 372.268H1191.01V383.841H1148.78V391.503H1143.6V397.446H1145.96V476.889H1110.79V554.924L1071.71 537.722V461.876H1077.99V456.403H1066.84V441.233H1019.43V456.403H1003.89V441.233H995.885V456.403H987.879V441.233H979.088V456.403H960.721V461.876H963.547V566.966H945.808V565.871H942.511V535.845H945.808V533.5H942.511V503.63H945.808V501.128H942.511V471.259H945.808V468.913H942.511V439.044H945.808V436.542H942.511V406.673H945.808V404.327H942.511V373.363H948.006V370.861H950.831V364.293H898.4V357.099H900.127V354.91H871.556V357.099H873.283V364.293H860.253V370.861H863.079V373.363H868.573V404.327H865.277V406.673H868.573V436.542H865.277V439.044H868.573V468.913H865.277V471.259H868.573V501.128H865.277V503.63H868.573V533.5H865.277V535.845H868.573V565.871H865.277V568.217H868.573V592.613H850.678V498.157H778.624V566.966H766.85V352.877H758.216V358.35L742.204 362.26V358.663H733.57V364.449L717.558 368.202V364.136H708.924V370.392L693.069 374.301V370.861H684.278V376.334L668.423 380.244V377.429H659.789V587.608H647.545V475.481H602.491V544.447H556.182V485.646H550.531V466.411H553.827V464.378H538.914V458.279H537.344V464.378H532.478V433.258H531.379V464.378H525.1V466.411H528.71V485.646H498.256V530.528H468.587L453.046 587.608H421.964V401.199H380.678V394.475H383.033V392.129H351.793V394.475H354.305V401.199V411.833V539.599H334.84V491.276H341.747V486.897H292.769V457.81H283.507V451.867H262.628V457.81H245.675V561.805H190.103V484.708H143.323V545.698H102.665V584.637H73.4669V535.533H34.8497V577.443H0V607H34.8497H46.6232H65.9318H73.4669H102.665H143.323H156.981H164.202H190.103H245.675H262.628H283.507H292.769H329.345H334.84H354.305H386.8H402.969H421.964H498.256H515.838H545.664H556.182H603.276H615.835H659.789H664.028H668.423H684.278H693.069H708.924H716.145H717.558H733.57H742.204H756.018H758.216H762.612H766.85H778.624H838.119H846.596H850.678H868.573H900.127H929.011H942.511H963.547H1015.82H1071.08H1071.71H1110.79H1132.61H1145.96H1154.44H1219.9H1231.51H1245.48H1258.04H1304.82H1339.52H1346.58H1359.29H1437V578.851H1389.43Z" fill="#EFF6F8"/>
</g>
<g clip-path="url(#clip2)">
<path d="M1394.84 491.276V607H1389.35H1352.77H1343.51H1322.63H1305.67H1250.1H1224.2H1216.98H1203.32H1162.67H1133.47H1125.93H1106.62H1094.85H1060V577.443H1094.85V535.532H1133.47V584.637H1162.67V545.697H1203.32V484.708H1250.1V561.805H1305.67V457.81H1322.63V451.867H1343.51V457.81H1352.77V486.897H1401.75V491.276H1394.84Z" fill="#EFF6F8"/>
</g>
</g>
<defs>
<clipPath id="clip0">
<rect width="1389" height="607" fill="white"/>
</clipPath>
<clipPath id="clip1">
<rect width="1177" height="334" fill="white" transform="translate(0 273)"/>
</clipPath>
<clipPath id="clip2">
<rect width="341.747" height="155.133" fill="white" transform="translate(1060 451.867)"/>
</clipPath>
</defs>
</svg>
